<svg id="Ebene_1" data-name="Ebene 1" xmlns="http://www.w3.org/2000/svg" viewBox="0 0 150 150"><defs><style>.cls-1{fill:#a11e3b;}</style></defs><title>Zeichenfläche 1</title><path class="cls-1" d="M114.29,48.61a4.93,4.93,0,0,0-.17-1.67,4.22,4.22,0,0,0-.41-1.09c1.91-3.5,2.29-5.7,2.29-10s-1.06-6.69-3.46-10.1c.72-1.12,1.33-1.83,1.3-3.17-.13-4.83-2.1-7.51-4.86-10.39-2.08-2.17-3.92-2.88-6.87-3.49-3.6-5.16-8-7.55-14.25-7.55-6.73,0-13.31,3.58-16.07,10-3-6.48-8-10-14-10C51.37,1.19,42.63,6,41,14.13c-4,3.94-7,10.11-7,14.95,0,5.79.61,11.5,3.38,16.44a16.45,16.45,0,0,0-.85,8.73c.5,3.66,1.65,7.33,3.61,8.77.78.57,5.59.11,7.4-1.33a9.06,9.06,0,0,0,1.33,3.48,9.19,9.19,0,0,0,4.36,4c0-.56,0-1.08,0-1.59,0,0,1.56,4.59,7.38,4.51a3.75,3.75,0,0,1,.68-4.72c1.37-1.36,6-2.26,6,.66V93.65c0,4.43-.18,5.07-1.22,7-1.5,2.8-4.79,3.63-12.88,5.91-6,1.69-12,5.34-13.57,9.67a16.53,16.53,0,0,1,5.23-2.75,17.41,17.41,0,0,1,6.22-.24A9.39,9.39,0,0,1,48,115.66c-2.39,1.16-4.16.38-6.58,3.42a6.31,6.31,0,0,1,4.29-.31c-1.54,2.31-3.7,2-5.73,3.25a6,6,0,0,0-2.9,5.84c2.53-3.21,4.41-2.6,7.48-3.93,2.64-1.16,4.55-2.44,5.9-5.62.27,5.81-3.8,6.79-5.95,8.82-3.48,3.29-5.32,5.24-5,11.24,1.31-7.81,8.57-7.48,13.27-10.77,3-2.09,3.63-4.39,4.1-8.33,3.93,10.49-5.47,10.06-10.78,15.8-3.09,3.34-3.45,10.14,1.45,11.42a6.15,6.15,0,0,1-.92-5.93,6.38,6.38,0,0,1,5.77-4.68,7.08,7.08,0,0,0-3.36,5.33,7.26,7.26,0,0,0,2.39,6.94c-.52-3-.44-5.13,1.11-7.83,1.91-3.33,6-4.45,9.93-7.14,1.81-1.25,3.32-3.75,4.34-7.23A12.54,12.54,0,0,1,65,133.3c-1.93,3.28-6.63,4.19-8.59,7.38-1.64,2.67-1.81,4.75-1.56,7.88a9.38,9.38,0,0,1,4.82-6.34c5.09-2.34,8.08-4.46,9.72-9.06.31,2.56.48,4.13-.56,6.43-1.62,3.58-6,3.6-8.29,5.71a8.49,8.49,0,0,0-2,3.33,8.51,8.51,0,0,1,3.61-.81c2.12,0,3.26,1,5.46,1,3.91,0,6.11-3.65,5.7-9.24,2,5,6.17,9.24,10.71,9.24,2.26,0,5.08-.35,7-1.7-2.35.3-4.77-.76-7.31-2.36-5.37-3.38-6.56-9.23-7.19-14.61a21.08,21.08,0,0,0,8,11c5.69,4.22,14.33,5.93,19.6,2.72a16.08,16.08,0,0,1-5.27-.19c-3.09-.55-5.4-1.3-7.43-3.08,4.56,1.71,8,1.37,12.44-.6,3.32-1.47,4.84-3.6,5.67-7.64a18,18,0,0,1-9.07,4.63c-5.67,1.32-12.8-2.06-15.94-7.94a14.07,14.07,0,0,1,2.15.29c3.11.64,3.45,2.95,7.31,3.62a3.38,3.38,0,0,1-1.19,1.16c2.6.55,4.27.85,6.81,0a20.69,20.69,0,0,0,8.53-4.88,11.9,11.9,0,0,1-4.63.94,12,12,0,0,1-5.5-1,12,12,0,0,1,6.46-3.89c1.81-.5,5.19-.82,7.47.26-.94-2.35-4-3.85-6.09-3.87-6.86-.08-7.39,3.67-11.7,3.39-3.23-.21-6.22-3-11.06-1.8a4.91,4.91,0,0,0-.27-2.49,4.67,4.67,0,0,0-2-2.72c3,.46,4.2,3.11,7.92,3.76,8.49,1.5,10.3-1.38,14.76-2.9a6.61,6.61,0,0,1,4.68.22s-1.06-2.72-2.68-3.78a5.33,5.33,0,0,1-2.41,1.66,6.36,6.36,0,0,1-3.9.2,6.69,6.69,0,0,1,.88-3.4,5.17,5.17,0,0,1,3.62-2.15,7,7,0,0,0-3.42-.12c-1.86.51-3.91,3.69-7.5,4.33s-6.1-.57-8.68-2.91a10.66,10.66,0,0,0,5.42.66c3.74-.41,6.08-2.18,8.39-4.73-5.26.69-11.54-2.68-14.36-8.18a9.25,9.25,0,0,1-.92-4.62V70.14c0-2.61,1.58-5.43,4.33-5,0,0-.35,4,.87,6.12,1.52,2.59,3.55,4.06,6.56,4a5.45,5.45,0,0,1-.76,3c3.36.06,10.21-4.28,15.43-13.17,4.2-7.54,1.63-13.51,2-14.73C111.41,49,112.92,49.06,114.29,48.61ZM59.66,129.34a10.68,10.68,0,0,0,2.88-11.66,10.05,10.05,0,0,0-4.43-5.9A16.91,16.91,0,0,1,60,110a17.41,17.41,0,0,1,1.72-1.36l.84,2.25c1.06,2.88,2.7,4.65,2.78,7.36C65.46,123.07,62.43,127.16,59.66,129.34ZM110.87,26.39a23.78,23.78,0,0,0-5.28-4.34,5.4,5.4,0,0,1-.76-2.81,5.59,5.59,0,0,1,1.92-4.7C110.28,17.62,112.22,22.15,110.87,26.39ZM97.05,50.46c.57-.17,2.46-.78,3.09-1a25.61,25.61,0,0,1,1.23,4.77,2.45,2.45,0,0,1,1.46-.43,8.54,8.54,0,0,1,1.67.12c-.26.57-.32,1.25-.6,1.81A6.47,6.47,0,0,1,102.12,58a4,4,0,0,1-.79.53l-.11-.45c-.89-3.46-3.16-5.09-6.39-5.78a15.72,15.72,0,0,0-.2-4.15,15,15,0,0,0-1.06-3.83A13.29,13.29,0,0,1,97,44a11.5,11.5,0,0,1,6.4,2.55,3.61,3.61,0,0,1-.05,2,12,12,0,0,1-1.1,2.87c-.44-1.41-1.12-3.58-1.46-3.6-.51,0-3.09.93-4.06,1.09C96.83,49.4,96.93,49.88,97.05,50.46Zm-3.58,1.63c-3.45-.23-5.93,1.84-8.42,4.6a10.73,10.73,0,0,0-1.11,1.52,3,3,0,0,1-1.88-.32,2.44,2.44,0,0,1-.61-.38,23,23,0,0,1,2.39-5.24C86,48.86,88.6,46,92.09,44.76,92.4,46,93.53,49,93.53,49,93.48,49.48,93.45,51.12,93.47,52.09Zm-.29,2.36a6.32,6.32,0,0,0-1,1.58,7.17,7.17,0,0,0-.47,1.24A3.51,3.51,0,0,0,90.46,56a4.35,4.35,0,0,0-1.08-.51A7.75,7.75,0,0,1,93.18,54.45ZM80.41,18.75c.13,1,.91,1.36,1,2.34a3.21,3.21,0,0,1-.21,1.41l-5-1.33a10.26,10.26,0,0,1,3.19-5.37A23.46,23.46,0,0,1,85.61,12,10.26,10.26,0,0,0,86,14.87c.19.7.39,1.06.62,1.75.31,1,.47,1.51.72,2.5A25.33,25.33,0,0,0,83.27,18a24.64,24.64,0,0,0-2.86-.43A4.82,4.82,0,0,0,80.41,18.75Zm1.87.43a5.23,5.23,0,0,1,4.62,1.69,18.89,18.89,0,0,0-4.28,2.22C82.1,21.27,81.86,19.37,82.28,19.18Zm2.07,7.89a10.85,10.85,0,0,1,1.57.47,9.92,9.92,0,0,1,2.24,1.16,14.44,14.44,0,0,0,0-2.08,14.13,14.13,0,0,0-.21-1.73,22.25,22.25,0,0,1,3-1.24,8,8,0,0,1,1.35.81A7.94,7.94,0,0,1,94,26.08l1.28-3.33.47,0a14.57,14.57,0,0,1-.16,3.94A15.33,15.33,0,0,1,95,29.43l-4.32-3.14-.83,4.34a27.27,27.27,0,0,0-2.86-.56,29.27,29.27,0,0,0-3-.34c0,.78,0,1.23.1,2s.12,1.21.24,2a12.06,12.06,0,0,1-2.73,1.2,12.19,12.19,0,0,1-2.53.57c-.2.46.39.7,1.09,1.16.48.32.58.75.9,1.26,0,.29,0,.6-.21.72-1,.46-1.44.66-2.36,1.08l-2.16,1c0-.43.1-.87.17-1.32C77,35.81,80.57,30,84.35,27.07Zm4.1-8.25a19.75,19.75,0,0,0-.54-4,14.94,14.94,0,0,1,2.55,1.85,14.3,14.3,0,0,1,2.7,2.9,24.32,24.32,0,0,0-4.68.78C88.49,19.87,88.48,19.44,88.45,18.82Zm8.35,7.75A10.55,10.55,0,0,1,98,28a13.77,13.77,0,0,1,1.33,3c.73-.76,1.13-1.19,1.83-2s1.08-1.19,1.75-1.95a12.31,12.31,0,0,1,2.52,3,49.92,49.92,0,0,1,1.8,6l-.6-.46a16.93,16.93,0,0,0-2.8-1.74,7.58,7.58,0,0,0-.46-2.11,7.36,7.36,0,0,0-1-2.05c-.25.88-.4,1.38-.69,2.26l-.33,1a16.2,16.2,0,0,0-10.43.92,16.66,16.66,0,0,0-7,5.11,7.14,7.14,0,0,1-2.8-3.15,10.26,10.26,0,0,1,2.67-.67,10.91,10.91,0,0,1,2.06-.11c-.06-.67-.09-1.05-.13-1.72s-.06-1.08-.08-1.77a12,12,0,0,1,4.68.72,35.37,35.37,0,0,0,.85-4.27,41.36,41.36,0,0,0,4.55,3.35,8.84,8.84,0,0,1,.13-1.78A9.69,9.69,0,0,1,96.8,26.57Zm-.37-3.87a22.87,22.87,0,0,1,6.44.93l.66.21.91.8a11.72,11.72,0,0,0-2.37,1.83,12.1,12.1,0,0,0-2,2.36c-.86-1.26-1.31-2-2.09-3.29C97.35,24.43,97,23.72,96.43,22.7ZM78,42.87l1.72-.74-.92-1.44A9.4,9.4,0,0,1,81,39.6a4,4,0,0,1,2-.51,2.87,2.87,0,0,1,.73.2,20,20,0,0,0-2.12,3.39c-.62,1.25-1.17,2.55-1.66,3.84l-2.76-2.21Zm7.8-2.43,4.66,2.81a20.5,20.5,0,0,0-7.07,6.4l-2-1.74A25.5,25.5,0,0,1,85.75,40.44Zm7.11,1.81a7.58,7.58,0,0,0-2.28-1.59A34.38,34.38,0,0,0,86.9,39.2a16.65,16.65,0,0,1,5.8-3.8,7.51,7.51,0,0,1,3,2.92c.36-.76.55-1.19.86-2s.45-1.17.64-1.78a12.84,12.84,0,0,1,1.51.08C99.38,36,100.17,38,100.17,38l1.51,4.74a8.9,8.9,0,0,0-1.61-.61A12.61,12.61,0,0,0,92.86,42.25Zm10.42,1.46-.68-.47a15.63,15.63,0,0,0-.29-3.26,16.25,16.25,0,0,0-1.92-5,13.72,13.72,0,0,1,1.51.45,12,12,0,0,1,5.74,4.49,7.22,7.22,0,0,1-1,1.25A11.66,11.66,0,0,1,103.28,43.71Zm3.57-14.93a12.12,12.12,0,0,1-1.06-4,14,14,0,0,1,5.48,5.07,11.61,11.61,0,0,1-.81,1.36,7.52,7.52,0,0,1-2.09,2.08,7.5,7.5,0,0,0-.61-2.42A14.11,14.11,0,0,0,106.85,28.78ZM102,11.7a15.63,15.63,0,0,1,3.7,2,28.73,28.73,0,0,1-2.79,2.3c-.51.38-.8.59-1.34.95a10.63,10.63,0,0,1-2-4,9.79,9.79,0,0,1-.45-2.2A21.74,21.74,0,0,1,102,11.7Zm-1,6.17a6.79,6.79,0,0,1,1.19,2.65,20,20,0,0,0-5.28-1c0-.66,0-1.09,0-1.8,0-1.14-.07-1.78-.18-2.91a6,6,0,0,1,2.14.89A6.41,6.41,0,0,1,101,17.87Zm-5.42-5.78a8.24,8.24,0,0,0-1.49,2.19,10.19,10.19,0,0,0-.85,2L91.7,15.1c-1.21-.89-1.94-1.34-3.11-2.29C88,12.3,87.56,12,87,11.5a22.5,22.5,0,0,1,10.7-.94A6.47,6.47,0,0,0,95.61,12.09ZM87.73,3.7a11.58,11.58,0,0,1,8.58,3.5,25.45,25.45,0,0,0-6,.52l-2.58-.65-2-3.32A20.55,20.55,0,0,1,87.73,3.7Zm-4,.31a14.05,14.05,0,0,1,1.5,1.52A3.18,3.18,0,0,1,86.44,8a2.93,2.93,0,0,1-.18,1l-1,.45A5.5,5.5,0,0,0,83.53,8C83,7.61,80.66,6.25,79.72,5.7A10.3,10.3,0,0,1,83.69,4ZM76.75,9.39a4,4,0,0,1,1.61-.3,12.57,12.57,0,0,0,2.73-.36,1.61,1.61,0,0,1,1.56.36,2.07,2.07,0,0,1,.93,1.22,22.21,22.21,0,0,0-7.41,6C76.05,14.14,75.68,11.78,76.75,9.39Zm-2.11,32c0,.47,0,.94,0,1.42,0,2.35,0,4.39.1,6.38l-2.46-.91a23,23,0,0,0-.93-2.26,12.89,12.89,0,0,1,.46-1.86A12.41,12.41,0,0,1,73,41.53ZM50.89,48.71c-.19.23-.37.48-.54.73l-1.74-2.15-1.73-.74a9.87,9.87,0,0,1,1.22-2.23c-.72-.31-1.6-2.17-1.93-3.13a9.53,9.53,0,0,0,4-.22l-1.66-5.84a12.42,12.42,0,0,1,3.63,1.65c1.09.7,2.07.9,2.59,2.09a3,3,0,0,1,.24.82A8.13,8.13,0,0,0,50.7,43.9,11.82,11.82,0,0,0,50.58,46,11.56,11.56,0,0,0,50.89,48.71Zm-8.79-1c-.51.33-.83.55-1.25.86a10.21,10.21,0,0,1,1-3.74,14.08,14.08,0,0,1,.92-4.67l2.37,4-1,2.3C43.33,46.92,42.88,47.19,42.1,47.7ZM44.74,55a5.14,5.14,0,0,1-1,.58,6.06,6.06,0,0,1-1.39.48,11.68,11.68,0,0,1-1.56-5.63A10.08,10.08,0,0,1,44.74,55Zm5.51-37c.21.69.37,1.27.5,1.85l2.3,2.23.72,1.1a17.87,17.87,0,0,0-4.91,2.68,12,12,0,0,1-1.23-2.1A4.77,4.77,0,0,0,46.5,22h0A26.35,26.35,0,0,1,50.25,18Zm-3.44-3.18a13.66,13.66,0,0,1,5.88-2.11,37.56,37.56,0,0,0-5,5.09,9.52,9.52,0,0,0-.18-1.26A13.35,13.35,0,0,0,46.81,14.82Zm9.62,9.33A16.7,16.7,0,0,1,58.57,24l1.26,1.26a3.71,3.71,0,0,1,0,2.14,5.78,5.78,0,0,1-.19.62,6.29,6.29,0,0,0-1.78-.66c-.46-.09-.9-.16-1.33-.21a5.83,5.83,0,0,0,.11-1.55A5.91,5.91,0,0,0,56.43,24.15Zm3-1.89a16.53,16.53,0,0,0-3.25.26l1.71-2.95.89-1.13a10.36,10.36,0,0,1,1.9,1.9,10.54,10.54,0,0,1,1.36,2.1A21.68,21.68,0,0,0,59.48,22.26Zm-2.77,7.26a15.79,15.79,0,0,1,5.53.7,7.78,7.78,0,0,0-1.3-1.34l0-1.8c.15-.61.22-1,.33-1.58s.16-.87.22-1.32l.23,0c.56.09,1.1.2,1.62.32a15.93,15.93,0,0,0,1.39,2.7,11.38,11.38,0,0,0,.82.88,10.39,10.39,0,0,0-.89,2,5,5,0,0,0,.37,3.38l-2.43-1.72a4.94,4.94,0,0,0-.36,1.72,11.74,11.74,0,0,1,.32,3.63,10.14,10.14,0,0,1-.26,1.7,13.23,13.23,0,0,0-6.91.68,7.44,7.44,0,0,1,0-2.16c.13-1,.57-1.46.71-2.45.11-.74,0-1.18.07-1.91C56.29,32.42,56.51,30.6,56.71,29.52ZM55.26,27a14.24,14.24,0,0,0-7.56,2.09,12.08,12.08,0,0,1,7.39-4.74,4.19,4.19,0,0,1,.26,1.33A4.29,4.29,0,0,1,55.26,27Zm-.39,2.68c-.25,1.6-.4,2.64-.65,4.37l-.3,2.14-1.09-.11c-.63-.41-1-.65-1.58-1.1a20.14,20.14,0,0,1-3-2.63A15.67,15.67,0,0,1,54.87,29.72Zm-8-4.44a5.6,5.6,0,0,0,1,1.41,22.68,22.68,0,0,0-5.9,8.11,18.27,18.27,0,0,1,3.55-11.56l.72.24A5.52,5.52,0,0,0,46.84,25.28ZM44.51,39.65a3.84,3.84,0,0,1-1.41-.32,17.69,17.69,0,0,1,3.51-5.53c.17.9.31,1.57.58,2.61a19.3,19.3,0,0,0,1.08,3.13,7.4,7.4,0,0,0-2-.15A15.1,15.1,0,0,1,44.51,39.65Zm7.64,3.1A13.28,13.28,0,0,1,53.29,42a6.53,6.53,0,0,1,.63,1.08,7,7,0,0,1,.78,2.61,9.36,9.36,0,0,0-2.54,1.66,5,5,0,0,1-.42-1.6A5.13,5.13,0,0,1,52.15,42.75Zm1.69-1.07a10.17,10.17,0,0,1,6.49-1.16l.2,0A15.37,15.37,0,0,1,58.81,43a15.6,15.6,0,0,1-1.54,1.61c-.68-.61-1.06-1-1.77-1.54S54.43,42.14,53.84,41.68ZM62,40.89a12.5,12.5,0,0,1,5,2.78c-.19.85-.36,1.74-.47,2.52a25.15,25.15,0,0,0-.23,3.07,11.54,11.54,0,0,0-5.8-4.1Zm4.21-.81a10.35,10.35,0,0,0-2-.82A13.69,13.69,0,0,1,63.81,37a13.14,13.14,0,0,1-.15-2.34,7.3,7.3,0,0,1,1.28.78,7.67,7.67,0,0,1,.88.72,3.72,3.72,0,0,1,2-.33,3.63,3.63,0,0,1,1.54.43,10.16,10.16,0,0,0-2,2A9.91,9.91,0,0,0,66.22,40.08Zm1.12-12.85a7,7,0,0,1,.19-1.09,12.51,12.51,0,0,1,5.28,6,4,4,0,0,1-.67,1.13,3.24,3.24,0,0,1-.65.63l-2.4-2.1a2.2,2.2,0,0,0-.47-1.91A2.14,2.14,0,0,0,67.34,29,7.15,7.15,0,0,1,67.34,27.23Zm2.27,10.91c.83-.69,1.31-1.07,2.19-1.69a39.84,39.84,0,0,1-.57,4.07c-.27,1.48-.47,2.37-.83,3.7A11.57,11.57,0,0,0,67,40.57,26.09,26.09,0,0,1,69.61,38.14Zm-1.72,10A13.69,13.69,0,0,0,68,44.69a17,17,0,0,1,3.86,8.06,5,5,0,0,0-2-1.06,5.11,5.11,0,0,0-2-.3l-.53-.77A14.19,14.19,0,0,0,67.89,48.16Zm6-18.31c-2.77-3.9-5.94-6.17-10-7.1l1.67-6.13a11.58,11.58,0,0,1,3,3.34A37.87,37.87,0,0,1,71,25.21a8,8,0,0,1,.59-1.36,6.43,6.43,0,0,1,1.65-2.09A13.57,13.57,0,0,1,73.88,29.85ZM72.45,20c-.15.22-.29.42-.49.68a9.83,9.83,0,0,1-.8.91,3.5,3.5,0,0,1-.86-.77c-.67-.8-1.92-3.6-2.41-4.4a9.29,9.29,0,0,1-.68-1.24A11.61,11.61,0,0,1,72.45,20Zm-2.66-6.53a29.23,29.23,0,0,0-4.53-2.09l2-3.26A19.36,19.36,0,0,1,69.79,13.49ZM58,5.47l.17-1.57a13.29,13.29,0,0,1,7,2.08l.19,1.6s-.82,2.1-1.44,3.39a19.34,19.34,0,0,0-2.9-.59,4.66,4.66,0,0,0-.83-1.52,6.75,6.75,0,0,0-2.37-1.73ZM61.38,14a15.27,15.27,0,0,1,3.48.38v.72A9.49,9.49,0,0,1,64,18.05,9.65,9.65,0,0,1,62.88,20c-.41-.36-4.45-3.37-5-3.38a38.28,38.28,0,0,1-2.73,6.18l-.28.08a5.86,5.86,0,0,0-1.46-2.67,5.88,5.88,0,0,0-2-1.54l.3-.88.17-.95A16.55,16.55,0,0,1,61.38,14Zm-5-10.14A28.81,28.81,0,0,1,55.24,7.8a8.37,8.37,0,0,1,1.12,2.36,32.14,32.14,0,0,0-3.4.21c-1.17-.88-3.51-2.61-4.58-3.4A13.71,13.71,0,0,1,56.35,3.87ZM47.26,8a10.52,10.52,0,0,1,2.09,1.43,9.19,9.19,0,0,1,1.36,1.36,23.3,23.3,0,0,0-6.87,2.78,3.44,3.44,0,0,0-.07-.51l-.09-.41A19.8,19.8,0,0,1,47.26,8Zm-2.6,8.29a6.42,6.42,0,0,0,.23.88,21.54,21.54,0,0,0,1.35,2.65c-.91,1.29-1.74,2.6-2.55,4-.7-.67-1.18-1.12-2-1.84-.29-.26-1.2-.92-1.7-1.3A24.92,24.92,0,0,1,44.66,16.24Zm-6.13,6.55A8,8,0,0,1,39,22a6.88,6.88,0,0,0,1,1.7,13.92,13.92,0,0,0,2.63,2,28.4,28.4,0,0,0-2.06,4.88l-3.73.94A12.93,12.93,0,0,1,38.53,22.79Zm-1.47,10a5.58,5.58,0,0,1,1.21-.34,5.71,5.71,0,0,1,1.77-.1,49,49,0,0,0-.94,5.51A21.88,21.88,0,0,1,37.06,32.78Zm5.19,28.93a9.44,9.44,0,0,1-1.84-.13,7.9,7.9,0,0,1-1.77-4.52,22.29,22.29,0,0,0,3.76,2.38A22.42,22.42,0,0,0,46.1,61,10.16,10.16,0,0,1,42.25,61.71Zm5.12-1.05a12.7,12.7,0,0,1-4.27-3.47c.49-.14.9-.27,1.49-.49a17.28,17.28,0,0,0,2.08-.88,7,7,0,0,0-.92-3c-.38-.7-.92-.91-1.19-1.67a3.28,3.28,0,0,1-.23-1.32,3.68,3.68,0,0,1,1.8.13,5.22,5.22,0,0,1,1.38.73,9.65,9.65,0,0,1,1.54,1.11A19.73,19.73,0,0,0,47.37,60.66Zm4.71,5.81a8,8,0,0,1-2.3-3.78l3.46-.63A9.2,9.2,0,0,0,52.08,66.47Zm2.44-6.14L49.39,61a12.65,12.65,0,0,1,.71-6.73,12.61,12.61,0,0,1,4.68,1.32,12.56,12.56,0,0,1,3.48,2.28,4.49,4.49,0,0,0-.44.17A10.15,10.15,0,0,0,54.52,60.33Zm2.54,8.51A4.64,4.64,0,0,1,55.79,63l1.53.42,1.51,1.16A6.31,6.31,0,0,0,57.06,68.84Zm2.68-5-1-2-1.86-.23c2-1.56,5.43-1.47,7,.58A8.52,8.52,0,0,0,59.74,63.85Zm6.56-5a31.44,31.44,0,0,0-1.47-4,6.06,6.06,0,0,0-1.45-1.79,6.51,6.51,0,0,0-1.83,1.26,11.11,11.11,0,0,0-1.71,1.79,9.53,9.53,0,0,0-1-1.58A9.63,9.63,0,0,0,56.1,52a2,2,0,0,0-.68,1.1,2,2,0,0,0,0,1,5.28,5.28,0,0,1-2.27-.62,5.33,5.33,0,0,1-1.76-1.31,7.42,7.42,0,0,1,1.46-1.39c8.54-6.18,15.63,2,15.43,9.81A7.86,7.86,0,0,0,66.3,58.89Zm2.61,86.51a4.87,4.87,0,0,1-4.12.13,7.46,7.46,0,0,0,3.27-1.5,7.62,7.62,0,0,0,3-4.17C71.32,142.13,71,144.29,68.91,145.4Zm3.35-85.25a64.78,64.78,0,0,0-3.13-6.63L72,53.3A27.66,27.66,0,0,1,72.26,60.15Zm2.61-.41a66.42,66.42,0,0,0-1.76-8.91l1.7.12C74.88,53.64,74.94,56.36,74.87,59.74Zm2.46-33.45c0-.56,0-.88-.1-1.44-.1-1-.17-1.57-.34-2.57,1.27.32,2,.49,3.27.77l2,.39a22.88,22.88,0,0,0-5.81,6.7,18,18,0,0,1-.67-4.3Zm-.57,29.62c-.2-1.74-.38-3.4-.51-5l2.26-.24C77.8,52.82,77.25,54.71,76.76,55.91ZM78,48.84a5.8,5.8,0,0,1-1.8,1.3c-.11-1.65-.17-3.29-.15-5A4.76,4.76,0,0,1,78,46.35a4.92,4.92,0,0,1,1,1.26A6.46,6.46,0,0,1,78,48.84Zm2.91.36,2,1.12a29.21,29.21,0,0,0-3.66,7.87A34.48,34.48,0,0,1,80.91,49.2ZM81.72,64c-.58-1.09-1.13-1.77-1-3a18,18,0,0,1,.47-2.48,4.64,4.64,0,0,0,.7.56,4.32,4.32,0,0,0,1.31.59A31.24,31.24,0,0,0,81.72,64Zm1.85.58a12.33,12.33,0,0,1,3-6.68A6.25,6.25,0,0,1,88.83,59a6.16,6.16,0,0,1,1.36,1.26A9.93,9.93,0,0,0,83.57,64.53Zm10.92,7.88c-2.54-.16-4.29-1-5-3.17-.62-1.79-.2-5.66,2-7.08a3.21,3.21,0,0,0,.3,1.32,8.5,8.5,0,0,0-.43,2.06,8.73,8.73,0,0,0,.37,4l.88-1.88.08-2.94a6.56,6.56,0,0,1,2.25,3A7.64,7.64,0,0,1,94.49,72.41Zm.62-11.24a4.44,4.44,0,0,0-1.56-.8,6.18,6.18,0,0,0-1-.21,12.51,12.51,0,0,1,.69-3.8A12.76,12.76,0,0,1,94,54.49a6.49,6.49,0,0,1,.88.16,5.68,5.68,0,0,1,3.71,3.7,8,8,0,0,0-2.66,1.93A8.07,8.07,0,0,0,95.11,61.17Zm1.8,2.6a4.27,4.27,0,0,0,1.93-1.9,4.93,4.93,0,0,0,.37-.78,15.18,15.18,0,0,1-1.75,9.28A13,13,0,0,0,96.91,63.77Zm.94,10.9a19.5,19.5,0,0,0,3.21-7.59,25.77,25.77,0,0,0,.58-4,3.8,3.8,0,0,1,1.4,2.05,8,8,0,0,1,.08,2.54c0,.6,0,1.05.09,1.51A39.16,39.16,0,0,1,97.85,74.67Zm10.68-15.39A21.53,21.53,0,0,1,105,66.93a15.69,15.69,0,0,0-1.48-4.18,4.35,4.35,0,0,0-1.82-1.8,13.13,13.13,0,0,0-.14-1.42,8.24,8.24,0,0,1,3.88-1.74,7.91,7.91,0,0,1,3.35-.07A14.55,14.55,0,0,1,108.53,59.28Zm.12-8.37A18.76,18.76,0,0,0,104,44.3l4.61-2.74A10.4,10.4,0,0,1,108.65,50.91Zm1.48-11.77a16.82,16.82,0,0,1,.33-2.77,24.61,24.61,0,0,1,1.75-4.87,24,24,0,0,1,1.19,2.77c1.52,4.18,1.81,7-.78,11.38A14.63,14.63,0,0,0,110.13,39.14Z"/></svg>